# xmcd CD database file
#
# Track frame offsets:
#	150
#	13532
#	27603
#	38750
#	48414
#	63513
#	72726
#	83555
#	98024
#	113948
#	133107
#
# Disc length: 2200 seconds
#
# Revision: 0
# Processed by: cddbd v1.5.1PL2 Copyright (c) Steve Scherf et al.
# Submitted via: CDex 1.51
#
DISCID=9508960b
DTITLE=斎藤一人 - 母の教え
DYEAR=1900
DGENRE=Speech
TTITLE0=母の教え01
TTITLE1=母の教え02
TTITLE2=母の教え03
TTITLE3=母の教え04
TTITLE4=母の教え05
TTITLE5=母の教え06
TTITLE6=母の教え07
TTITLE7=母の教え08
TTITLE8=母の教え09
TTITLE9=母の教え10
TTITLE10=母の教え11
EXTD=
EXTT0=
EXTT1=
EXTT2=
EXTT3=
EXTT4=
EXTT5=
EXTT6=
EXTT7=
EXTT8=
EXTT9=
EXTT10=
PLAYORDER=
